<?xml version="1.0" standalone="no"?>
<!DOCTYPE svg PUBLIC "-//W3C//DTD SVG 20010904//EN"
 "http://www.w3.org/TR/2001/REC-SVG-20010904/DTD/svg10.dtd">
<svg version="1.0" xmlns="http://www.w3.org/2000/svg"
 width="1254.000000pt" height="1254.000000pt" viewBox="0 0 1254.000000 1254.000000"
 preserveAspectRatio="xMidYMid meet">

<g transform="translate(0.000000,1254.000000) scale(0.100000,-0.100000)"
fill="#000000" stroke="none">
<path d="M6055 11994 c-269 -60 -485 -229 -610 -479 -79 -158 -99 -244 -98
-428 l1 -147 -102 -54 c-55 -30 -218 -116 -361 -191 -523 -277 -936 -505
-1715 -947 -140 -80 -345 -196 -455 -258 -110 -62 -210 -119 -222 -126 l-22
-14 20 -35 c12 -19 25 -35 31 -35 12 0 182 94 803 445 715 404 1075 602 1530
845 220 117 426 228 459 247 32 19 60 33 61 31 1 -2 12 -33 24 -69 27 -83 101
-211 166 -290 128 -155 360 -283 553 -304 l62 -7 0 -1753 0 -1753 28 -6 c15
-4 35 -9 45 -12 16 -5 17 83 17 1760 l0 1766 49 0 c111 0 309 70 431 153 145
99 271 265 335 442 10 28 21 53 24 57 12 15 1079 -560 1876 -1010 209 -118
497 -280 640 -360 143 -80 263 -148 268 -152 4 -3 -11 -45 -33 -93 -102 -217
-116 -470 -39 -680 l30 -82 -28 -23 c-15 -12 -156 -118 -313 -235 -1044 -780
-2665 -2000 -2693 -2026 -16 -16 -16 -20 -2 -54 8 -20 19 -37 23 -37 4 0 84
58 177 128 94 70 766 576 1495 1123 729 547 1339 1005 1356 1017 l31 21 31
-47 c113 -173 338 -322 536 -353 34 -6 71 -12 84 -15 l22 -4 0 -2010 0 -2010
45 0 45 0 0 2009 0 2009 23 6 c12 3 36 6 53 6 47 0 196 46 267 81 137 69 273
192 345 312 50 82 101 206 117 284 20 91 19 284 -1 381 -56 273 -261 519 -517
622 -119 47 -198 62 -332 62 -233 -1 -428 -84 -596 -253 l-66 -66 -179 101
c-98 56 -361 206 -584 333 -717 408 -1250 698 -1885 1028 l-170 88 0 161 c0
187 -16 260 -90 411 -46 96 -111 189 -125 180 -5 -3 -12 0 -16 6 -4 8 -3 9 4
5 31 -19 6 17 -46 66 -104 99 -259 187 -392 223 -93 24 -323 30 -415 9z m645
-919 l0 -525 -389 0 c-249 0 -392 4 -396 10 -7 12 -18 11 409 11 218 0 324 3
333 10 10 9 13 110 13 515 0 441 2 504 15 504 13 0 15 -65 15 -525z m-771 451
c25 -16 -3 -26 -69 -26 -66 0 -97 13 -70 30 15 9 122 6 139 -4z m595 -92 c8
-20 8 -178 0 -198 -5 -14 -34 -16 -215 -16 l-209 0 0 115 0 115 209 0 c181 0
210 -2 215 -16z m-590 -72 c-1 -7 -2 -16 -2 -21 -2 -11 -134 -2 -147 11 -17
16 10 23 82 23 47 -1 68 -5 67 -13z m803 -84 c-2 -13 -4 -3 -4 22 0 25 2 35 4
23 2 -13 2 -33 0 -45z m-802 -88 c0 -12 -15 -15 -75 -15 -64 0 -75 3 -78 18
-3 16 4 18 75 15 61 -2 78 -6 78 -18z m0 -170 c0 -12 -16 -16 -69 -18 -69 -3
-95 6 -81 28 4 7 33 10 78 8 56 -2 72 -6 72 -18z m1182 -132 c-3 -8 -6 -5 -6
6 -1 11 2 17 5 13 3 -3 4 -12 1 -19z m-1182 -28 c0 -12 -16 -16 -69 -18 -69
-3 -95 6 -81 28 4 7 33 10 78 8 56 -2 72 -6 72 -18z m-7 -157 c-3 -16 -13 -18
-73 -15 -76 4 -80 5 -70 21 3 6 37 11 76 11 62 0 70 -2 67 -17z m809 -70 c-2
-16 -4 -5 -4 22 0 28 2 40 4 28 2 -13 2 -35 0 -50z m4281 -2230 l3 -63 -231 0
-230 0 0 40 c0 22 -4 40 -10 40 -6 0 -10 -37 -10 -90 0 -49 -3 -90 -6 -90 -3
0 -19 9 -35 21 -30 21 -38 21 -75 -6 -22 -16 -22 -16 -31 77 -6 54 -11 75 -12
51 l-1 -43 -39 0 c-30 0 -44 6 -55 22 -22 31 -20 64 4 88 20 20 31 20 373 18
l352 -3 3 -62z"/>
<path d="M1196 9201 c-10 -11 -30 -21 -45 -23 l-26 -3 0 -385 0 -385 266 -3
c221 -2 269 -5 279 -17 17 -21 128 -21 136 0 4 8 12 15 20 15 10 0 14 -15 14
-55 0 -31 5 -55 10 -55 6 0 29 12 51 26 l41 25 39 -25 c21 -14 43 -26 48 -26
6 0 11 24 13 53 l3 52 150 3 c104 2 152 6 157 15 9 14 11 728 2 751 -3 9 -17
16 -30 16 -14 0 -36 7 -49 16 -14 9 -25 12 -25 6 0 -5 7 -12 15 -16 13 -5 15
-54 15 -361 l0 -355 -120 0 -120 0 0 40 c0 25 -5 40 -12 40 -10 0 -13 -25 -12
-93 1 -50 -1 -100 -3 -110 -4 -16 -7 -16 -35 5 l-31 22 -39 -21 -38 -21 0 99
c0 55 -4 99 -9 99 -5 0 -11 -12 -13 -27 l-3 -28 -325 0 -325 0 -3 344 c-2 305
0 346 14 362 9 10 14 23 12 29 -2 7 -11 4 -22 -9z"/>
<path d="M2504 8372 c-10 -20 -20 -40 -22 -43 -1 -3 59 -52 135 -110 76 -57
194 -147 263 -200 69 -52 330 -252 580 -444 250 -192 532 -408 625 -480 177
-137 802 -617 1034 -794 l135 -102 19 36 c10 20 17 40 15 45 -2 5 -68 59 -148
121 -264 205 -1822 1402 -2125 1633 -115 88 -273 208 -351 267 l-141 108 -19
-37z"/>
<path d="M1710 5906 l0 -2023 -62 -6 c-81 -7 -224 -58 -313 -110 -92 -54 -229
-192 -284 -284 -97 -164 -137 -321 -128 -508 7 -147 30 -234 98 -366 134 -261
365 -422 659 -460 170 -22 369 20 521 111 140 83 280 242 349 395 l29 64 103
-43 c541 -228 894 -378 1288 -546 256 -109 632 -269 835 -355 204 -86 390
-166 414 -176 24 -11 45 -18 47 -17 1 2 4 23 6 48 l3 44 -260 111 c-653 280
-1680 716 -1985 843 -184 77 -356 149 -382 160 l-46 21 10 43 c19 77 14 273
-10 369 -21 84 -79 223 -121 285 -20 29 -20 32 -4 46 20 17 130 94 1243 873
415 290 791 553 835 585 44 31 214 150 377 263 l297 207 -11 33 c-18 53 -24
54 -85 11 -238 -165 -517 -359 -873 -608 -869 -607 -1156 -808 -1503 -1053
l-359 -253 -63 58 c-134 126 -269 185 -502 218 l-33 5 0 157 c-1 86 -1 995 0
2020 l1 1862 -46 0 -45 0 0 -2024z m475 -2886 l0 -535 -407 -3 -408 -2 0 45
c0 43 1 45 20 35 30 -16 60 4 60 40 0 35 -24 52 -57 39 -21 -8 -23 -6 -23 26
0 33 1 34 34 28 29 -4 35 -2 41 17 4 12 4 33 0 47 -5 23 -10 25 -40 20 -34 -6
-35 -5 -35 29 0 32 2 34 25 28 31 -8 55 10 55 41 0 31 -24 49 -55 41 -23 -6
-25 -4 -25 26 0 30 3 33 31 33 41 0 57 24 41 60 -10 23 -18 26 -42 23 -29 -4
-30 -3 -30 34 0 36 1 37 20 26 43 -27 84 48 43 80 -17 14 -17 14 1 8 17 -6 17
-5 4 16 -13 20 -13 25 -2 36 18 17 18 56 -1 72 -8 7 -26 10 -40 8 -23 -5 -25
-2 -25 29 0 31 2 33 25 27 31 -8 55 10 55 41 0 31 -24 49 -58 42 -27 -5 -27
-4 -24 33 3 30 9 40 25 43 12 2 195 4 407 3 l385 -1 0 -535z m-765 415 c0 -10
-85 -18 -108 -10 -7 3 -10 10 -7 15 8 14 115 9 115 -5z m838 -103 c9 -7 12
-61 10 -237 l-3 -228 -23 -2 c-13 -1 -25 2 -28 6 -2 5 -2 112 2 239 7 229 9
242 42 222z m-838 -38 c0 -12 -6 -15 -22 -10 -13 3 -40 6 -61 6 -23 0 -36 4
-32 10 3 6 31 10 61 10 43 0 54 -3 54 -16z m-28 -85 c5 -4 3 -9 -6 -12 -13 -5
-16 1 -15 31 1 28 3 31 6 12 3 -14 9 -28 15 -31z m25 -56 c-7 -10 -107 -4
-107 7 0 11 91 18 104 8 4 -3 6 -10 3 -15z m3 -139 c0 -10 -15 -14 -54 -14
-51 0 -74 9 -59 24 3 3 30 5 60 5 38 -1 53 -6 53 -15z m0 -139 c0 -12 -13 -15
-55 -15 -85 0 -69 26 18 29 27 1 37 -3 37 -14z m1 -140 c-1 -13 -111 -19 -111
-6 0 5 19 12 43 14 57 5 68 4 68 -8z m-3 -150 c-7 -6 -108 8 -108 16 0 15 105
15 108 1 2 -8 2 -15 0 -17z"/>
<path d="M1893 3363 c26 -2 68 -2 95 0 26 2 4 3 -48 3 -52 0 -74 -1 -47 -3z"/>
<path d="M2171 3264 c0 -11 3 -14 6 -6 3 7 2 16 -1 19 -3 4 -6 -2 -5 -13z"/>
<path d="M1723 3113 c26 -2 68 -2 95 0 26 2 4 3 -48 3 -52 0 -74 -1 -47 -3z"/>
<path d="M1968 3113 c12 -2 32 -2 45 0 12 2 2 4 -23 4 -25 0 -35 -2 -22 -4z"/>
<path d="M1415 3080 c-3 -5 -1 -10 4 -10 6 0 11 5 11 10 0 6 -2 10 -4 10 -3 0
-8 -4 -11 -10z"/>
<path d="M1438 2642 c15 -15 29 -26 31 -25 8 5 -30 53 -44 53 -9 0 -4 -10 13
-28z"/>
<path d="M1382 2530 c0 -14 2 -19 5 -12 2 6 2 18 0 25 -3 6 -5 1 -5 -13z"/>
<path d="M5635 6345 l-25 -24 0 -480 0 -481 28 -30 c19 -23 39 -33 70 -37 l42
-6 0 -43 c0 -23 4 -45 8 -48 5 -3 25 6 45 19 44 31 44 31 89 0 20 -14 39 -25
42 -25 4 0 6 23 6 50 l0 50 228 0 c164 0 231 3 240 12 9 9 12 140 12 530 0
501 -1 518 -19 528 -13 6 -151 10 -381 10 l-361 0 -24 -25z m753 -4 c9 -1 12
-94 12 -431 l0 -430 -307 2 -308 3 -3 420 c-1 231 0 424 2 430 3 8 511 13 604
6z m10 -948 l-3 -68 -225 0 -225 0 -3 40 -3 41 -89 -1 -90 0 0 -37 c0 -37 -1
-38 -37 -38 -47 0 -73 24 -73 66 0 64 3 64 398 64 l353 0 -3 -67z"/>
<path d="M6750 5373 c-11 -20 -17 -39 -13 -42 5 -3 49 -31 98 -62 50 -31 218
-139 375 -239 157 -101 438 -281 625 -400 187 -119 489 -313 670 -430 182
-117 512 -330 735 -472 223 -143 439 -282 480 -309 l75 -49 18 42 c17 41 17
41 -5 57 -26 19 -926 599 -1503 971 -616 396 -980 628 -1476 941 -25 16 -48
29 -51 29 -3 0 -16 -16 -28 -37z"/>
<path d="M10094 3569 c-8 -8 -14 -29 -14 -46 0 -26 -5 -31 -30 -36 -23 -5 -30
-12 -30 -30 0 -27 17 -47 40 -47 9 0 15 -9 15 -25 0 -19 -5 -25 -21 -25 -53 0
-58 -60 -6 -75 27 -8 32 -14 30 -35 -2 -17 -10 -26 -26 -28 -34 -5 -47 -38
-27 -68 9 -14 24 -23 33 -22 13 2 17 -4 17 -27 0 -25 -4 -30 -27 -33 -54 -6
-46 -82 8 -82 20 0 24 -5 24 -29 0 -25 -4 -30 -27 -33 -25 -3 -28 -7 -28 -38
0 -31 3 -35 28 -38 22 -3 28 -8 25 -25 -2 -13 -12 -23 -23 -25 -50 -9 -53 -69
-4 -79 28 -5 29 -8 29 -64 0 -91 -4 -89 242 -89 188 0 212 -2 223 -17 16 -22
99 -21 124 1 31 28 41 19 41 -38 0 -30 5 -58 11 -61 5 -4 28 5 49 19 22 14 43
26 47 26 5 0 25 -11 45 -25 20 -14 42 -25 47 -25 7 0 11 25 11 60 l0 60 111 0
c61 0 119 5 130 10 18 10 19 26 19 475 0 407 -2 465 -15 465 -8 0 -15 8 -15
19 0 42 -21 46 -264 46 -163 0 -237 -4 -254 -12 -17 -9 -29 -10 -43 -2 -12 6
-113 11 -250 12 -199 2 -232 0 -245 -14z m494 -29 l22 -20 20 20 c19 19 33 20
254 20 260 0 236 7 252 -70 12 -58 7 -816 -6 -840 -10 -18 -20 -20 -110 -20
-88 0 -99 2 -105 19 -3 10 -4 25 -3 32 2 8 -3 14 -9 13 -7 -1 -51 -2 -98 -2
l-85 -2 0 -29 0 -30 -290 -1 c-280 0 -290 0 -310 20 -15 15 -20 31 -18 53 3
30 5 32 39 29 40 -3 55 14 43 51 -5 16 -12 18 -39 14 -35 -6 -45 4 -45 43 0
25 15 33 38 21 25 -13 52 4 52 34 0 30 -27 47 -52 34 -26 -14 -38 -3 -38 36 0
33 1 34 36 32 25 -1 40 3 48 15 17 28 -4 53 -45 53 -33 0 -34 1 -34 40 0 38 1
40 28 37 32 -3 57 13 57 37 0 32 -18 45 -55 43 -36 -3 -36 -3 -33 35 3 35 5
38 31 35 49 -6 73 30 41 62 -12 12 -20 13 -35 6 -24 -13 -39 -5 -39 20 0 37
11 49 39 44 18 -4 32 0 41 11 21 25 0 50 -40 50 -36 0 -45 13 -36 50 l6 25
228 0 c215 0 229 -1 250 -20z m-435 -217 c-7 -2 -21 -2 -30 0 -10 3 -4 5 12 5
17 0 24 -2 18 -5z m-5 -140 c2 -8 -6 -13 -22 -13 -25 0 -33 10 -19 24 10 10
36 3 41 -11z m2 -153 c0 -5 -9 -10 -19 -10 -11 0 -23 5 -26 10 -4 6 5 10 19
10 14 0 26 -4 26 -10z m-7 -137 c-7 -2 -19 -2 -25 0 -7 3 -2 5 12 5 14 0 19
-2 13 -5z m747 -221 c0 -5 -18 -7 -40 -6 -22 1 -40 -2 -40 -6 0 -4 -8 -10 -18
-12 -11 -3 -18 -16 -20 -38 -4 -52 4 -67 36 -62 19 2 33 -3 47 -19 l20 -22
-32 18 c-29 17 -34 17 -50 3 -42 -35 -43 -33 -43 61 l0 91 70 0 c39 0 70 -4
70 -8z"/>
<path d="M10614 3045 c0 -55 1 -76 3 -47 2 29 2 74 0 100 -2 26 -3 2 -3 -53z"/>
<path d="M10613 2700 c0 -30 2 -43 4 -27 2 15 2 39 0 55 -2 15 -4 2 -4 -28z"/>
<path d="M9750 2755 c-19 -8 -363 -144 -765 -304 -401 -159 -997 -396 -1324
-526 -326 -129 -597 -237 -600 -239 -13 -8 1 -86 15 -86 20 0 2720 1072 2732
1085 2 2 -2 22 -9 43 l-14 40 -35 -13z"/>
<path d="M5600 1881 c-6 -12 -23 -21 -43 -23 l-32 -3 -3 -375 c-1 -206 0 -385
3 -397 l5 -23 274 0 c231 0 275 -2 286 -15 17 -21 123 -21 140 0 26 31 40 17
40 -38 0 -30 3 -56 6 -59 3 -4 27 7 54 24 l48 30 42 -31 c24 -17 47 -31 51
-31 4 0 9 26 11 58 l3 57 145 0 c80 0 151 4 158 8 9 6 12 97 12 398 l0 389
-27 12 c-16 7 -36 19 -46 27 -12 10 -21 11 -28 4 -8 -8 -5 -14 10 -22 21 -12
21 -14 19 -374 l-3 -362 -122 -3 -122 -3 -3 43 -3 42 -64 -3 c-94 -4 -135 -20
-139 -53 l-3 -28 -335 0 -334 0 0 369 c0 319 2 370 15 375 8 3 15 10 15 16 0
17 -19 11 -30 -9z"/>
</g>
</svg>
